<svg id="Layer_1" data-name="Layer 1" xmlns="http://www.w3.org/2000/svg" viewBox="0 0 140.48638 21.44253"><defs><style>.cls-1{fill:#fff;}</style></defs><path class="cls-1" d="M24,11.24673a10.65879,10.65879,0,1,0-18.5932,7.158V11.71689c-.00895-.15522-.01342-.31269-.01342-.47016a7.948,7.948,0,1,1,7.94679,7.99483h-.047v2.72419a.32832.32832,0,0,0,.047.00225A10.69122,10.69122,0,0,0,24,11.24673" transform="translate(-2.68257 -0.52548)"/><path class="cls-1" d="M13.34017,5.74781a5.32072,5.32072,0,0,0-5.30532,5.33588c0,.05624.00224.11022.00447.16646H8.03485v9.13311A10.42393,10.42393,0,0,0,10.6629,21.463V19.67915h.00224V15.69072a5.24666,5.24666,0,0,0,2.675.72887,5.336,5.336,0,0,0,0-10.67178Zm0,7.98133a2.64549,2.64549,0,1,1,2.63029-2.64545A2.64219,2.64219,0,0,1,13.34017,13.72914Z" transform="translate(-2.68257 -0.52548)"/><path class="cls-1" d="M36.65674,10.03507c0,1.84717-1.36719,2.98633-3.57373,2.98633H31.188v2.42285H29.62891V7.04874H33.083C35.28955,7.04874,36.65674,8.17618,36.65674,10.03507Zm-1.5708,0c0-1.05518-.70752-1.667-2.07471-1.667H31.188v3.334h1.82324C34.37842,11.70206,35.08594,11.09073,35.08594,10.03507Z" transform="translate(-2.68257 -0.52548)"/><path class="cls-1" d="M40.62109,7.04874h1.55909v7.07617h4.38964v1.31934H40.62109Z" transform="translate(-2.68257 -0.52548)"/><path class="cls-1" d="M55.71387,13.50089H51.51611L50.689,15.44425H49.08154l3.77784-8.39551h1.53515l3.79,8.39551H56.55371Zm-.51563-1.22266-1.583-3.67041L52.044,12.27823Z" transform="translate(-2.68257 -0.52548)"/><path class="cls-1" d="M64.7749,12.48136v2.96289H63.21582V12.50577l-3.29834-5.457h1.667l2.4585,4.08984,2.48291-4.08984H68.061Z" transform="translate(-2.68257 -0.52548)"/><path class="cls-1" d="M77.66113,14.13663v1.30762H71.36475V7.04874h6.12841V8.35636H72.92383V10.539h4.05371v1.2832H72.92383v2.31445Z" transform="translate(-2.68257 -0.52548)"/><path class="cls-1" d="M87.29736,15.44425l-1.71484-2.459a2.99778,2.99778,0,0,1-.32422.01172H83.36377v2.44727H81.8042V7.04874h3.4541c2.207,0,3.57422,1.12744,3.57422,2.98633a2.683,2.683,0,0,1-1.78711,2.65039l1.93164,2.75879ZM85.187,8.36808H83.36377v3.34619H85.187c1.36719,0,2.07422-.62354,2.07422-1.6792C87.26123,8.97989,86.5542,8.36808,85.187,8.36808Z" transform="translate(-2.68257 -0.52548)"/><path class="cls-1" d="M92.269,14.55655l.53907-1.21093a4.65675,4.65675,0,0,0,2.7705.92285c1.30762,0,1.85938-.46778,1.85938-1.09082,0-1.811-4.98926-.624-4.98926-3.74219,0-1.355,1.0791-2.50635,3.38184-2.50635a5.30588,5.30588,0,0,1,2.79492.74365L98.1333,8.8837A4.667,4.667,0,0,0,95.81885,8.224c-1.29492,0-1.82324.50391-1.82324,1.13965,0,1.78711,4.97753.62354,4.97753,3.70557,0,1.34375-1.09179,2.49512-3.39453,2.49512A5.40876,5.40876,0,0,1,92.269,14.55655Z" transform="translate(-2.68257 -0.52548)"/><path class="cls-1" d="M102.3252,11.24649a4.52628,4.52628,0,1,1,4.52148,4.31788A4.29883,4.29883,0,0,1,102.3252,11.24649Zm7.47265,0a2.95069,2.95069,0,0,0-5.90137,0,2.95069,2.95069,0,1,0,5.90137,0Z" transform="translate(-2.68257 -0.52548)"/><path class="cls-1" d="M122.88867,7.04874v8.39551h-1.2832l-4.62891-5.68506v5.68506h-1.54785V7.04874h1.28418l4.62891,5.68457V7.04874Z" transform="translate(-2.68257 -0.52548)"/><path class="cls-1" d="M127.54883,7.04874h1.55957v7.07617h4.38965v1.31934h-5.94922Z" transform="translate(-2.68257 -0.52548)"/><path class="cls-1" d="M139.88281,12.48136v2.96289h-1.55859V12.50577l-3.29883-5.457h1.668l2.458,4.08984,2.48242-4.08984H143.169Z" transform="translate(-2.68257 -0.52548)"/></svg>