<?xml version="1.0" encoding="UTF-8"?> <!-- Generator: Adobe Illustrator 25.0.0, SVG Export Plug-In . SVG Version: 6.00 Build 0) --> <svg xmlns="http://www.w3.org/2000/svg" xmlns:xlink="http://www.w3.org/1999/xlink" version="1.0" x="0px" y="0px" viewBox="0 0 536.37 99.67" style="enable-background:new 0 0 536.37 99.67;" xml:space="preserve"> <style type="text/css"> .st0{fill:#FFFFFF;} </style> <g id="Layer_1"> <g> <g> <path class="st0" d="M55.32,7.51C32.53,7.51,14.06,26,14.06,48.79c0,10.59,3.98,20.26,10.55,27.56V50.6 c-0.03-0.6-0.05-1.2-0.05-1.81c0-16.97,13.8-30.78,30.77-30.78c16.97,0,30.78,13.8,30.78,30.78c0,16.97-13.8,30.78-30.78,30.78 h-0.18v10.49c0.06,0.01,0.12,0.01,0.18,0.01c22.79,0,41.27-18.48,41.27-41.27S78.12,7.51,55.32,7.51z"></path> </g> <g> <path class="st0" d="M55.32,27.62c-11.34,0-20.54,9.2-20.54,20.54c0,0.22,0.01,0.42,0.02,0.64h-0.02v35.16 c3.15,1.82,6.56,3.23,10.18,4.16v-6.87h0.01V65.9c3.04,1.78,6.58,2.81,10.36,2.81c11.35,0,20.55-9.2,20.55-20.54 C75.87,36.82,66.68,27.62,55.32,27.62z M55.32,58.34c-5.61,0-10.18-4.57-10.18-10.18s4.57-10.18,10.18-10.18 c5.62,0,10.18,4.57,10.18,10.18S60.94,58.34,55.32,58.34z"></path> </g> </g> </g> <g id="Layer_2"> <g> <path class="st0" d="M127.14,33.26c6.7,0,11.37,4.57,11.37,11.32s-4.78,11.32-11.62,11.32h-7.34v11.18h-6.05V33.26H127.14z M119.55,51.03h5.98c4.34,0,6.84-2.34,6.84-6.45c0-4.05-2.48-6.38-6.82-6.38h-6V51.03z"></path> <path class="st0" d="M173.91,67.08h-21.4V33.26h6.05v28.71h15.35V67.08z"></path> <path class="st0" d="M207.07,58.34h-12.45l-2.88,8.74h-6.23l12-33.82h6.82l12,33.82h-6.38L207.07,58.34z M196.03,53.68h9.61 l-4.71-14.44h-0.16L196.03,53.68z"></path> <path class="st0" d="M234.53,67.08V53.75l-11.86-20.48h6.63l8.2,14.72h0.14l8.18-14.72h6.59l-11.86,20.48v13.34H234.53z"></path> <path class="st0" d="M287.51,67.08h-21.89V33.26h21.89v5.11h-15.84v9.14h14.98v4.8h-14.98v9.66h15.84V67.08z"></path> <path class="st0" d="M308.41,67.08h-6.05V33.26h13.59c7.31,0,11.7,4.05,11.7,10.52c0,4.48-2.34,8.2-6.38,9.66l7.38,13.64h-6.91 l-6.63-12.73h-6.7V67.08z M308.41,49.72h6.98c3.84,0,6.05-2.13,6.05-5.79c0-3.56-2.34-5.77-6.19-5.77h-6.84V49.72z"></path> <path class="st0" d="M346.6,57.57c0.38,3.12,3.49,5.16,7.62,5.16c4.08,0,6.91-2.02,6.91-4.83c0-2.44-1.73-3.84-6-4.85l-4.38-1.03 c-6.23-1.43-9.19-4.43-9.19-9.26c0-6,5.23-10.05,12.59-10.05c7.45,0,12.38,4.03,12.52,9.98h-5.77c-0.28-3.16-2.93-5.06-6.8-5.06 c-3.82,0-6.4,1.88-6.4,4.69c0,2.25,1.71,3.56,5.86,4.55l3.89,0.89c6.87,1.57,9.77,4.41,9.77,9.45c0,6.42-5.16,10.45-13.34,10.45 c-7.78,0-12.89-3.84-13.15-10.08H346.6z"></path> <path class="st0" d="M412.31,50.18c0,10.76-6.19,17.46-16.03,17.46c-9.87,0-16.05-6.7-16.05-17.46s6.19-17.48,16.05-17.48 C406.12,32.7,412.31,39.43,412.31,50.18z M386.41,50.18c0,7.52,3.82,12.3,9.87,12.3c6.02,0,9.87-4.78,9.87-12.3 c0-7.55-3.84-12.33-9.87-12.33C390.23,37.86,386.41,42.64,386.41,50.18z"></path> <path class="st0" d="M426.71,67.08V33.26h5.25l16.78,23.7h0.21v-23.7h5.81v33.82h-5.2l-16.8-23.72h-0.21v23.72H426.71z"></path> <path class="st0" d="M491.74,67.08h-21.4V33.26h6.05v28.71h15.35V67.08z"></path> <path class="st0" d="M510.06,67.08V53.75L498.2,33.26h6.63l8.2,14.72h0.14l8.18-14.72h6.59l-11.86,20.48v13.34H510.06z"></path> </g> </g> </svg> 